PathFileType	4	(X/Y/Z)	8_coords_data.trc
DataRate	CameraRate	NumFrames	NumMarkers	Units	OrigDataRate	OrigDataStartFrame	OrigNumFrames
30.0	30.0	8	21	m	30.0	32	53
Frame#	Time	THUMB_TIP	THUMB_IP	THUMB_MCP	THUMB_CMC	INDEX_TIP	INDEX_DIP	INDEX_PIP	INDEX_MCP	MIDDLE_TIP	MIDDLE_DIP	MIDDLE_PIP	MIDDLE_MCP	RING_TIP	RING_DIP	RING_PIP	RING_MCP	PINKY_TIP	PINKY_DIP	PINKY_PIP	PINKY_MCP	WRIST
X1	Y1	Z1	X2	Y2	Z2	X3	Y3	Z3	X4	Y4	Z4	X5	Y5	Z5	X6	Y6	Z6	X7	Y7	Z7	X8	Y8	Z8	X9	Y9	Z9	X10	Y10	Z10	X11	Y11	Z11	X12	Y12	Z12	X13	Y13	Z13	X14	Y14	Z14	X15	Y15	Z15	X16	Y16	Z16	X17	Y17	Z17	X18	Y18	Z18	X19	Y19	Z19	X20	Y20	Z20	X21	Y21	Z21
31	1.0333333333333334	-0.026509599685668947	-0.09800060272216797	0.9890230102539063	-0.02630120086669922	-0.07197750091552735	0.9927860107421875	-0.03218109893798828	-0.047675800323486325	1.0027000122070313	-0.03756489944458008	-0.016236299514770507	1.0113400268554686	0.01746269989013672	-0.043320201873779295	0.9303060302734375	-0.002421560049057007	-0.046065200805664064	0.9263070068359375	-0.023839500427246092	-0.04682730102539062	0.9295969848632812	-0.042775100708007815	-0.03842829895019531	0.9616300048828125	0.022415700912475585	-0.025418899536132813	0.9164819946289062	0.00017766000330448101	-0.025943599700927734	0.9142769775390625	-0.025957500457763672	-0.02562070083618164	0.9189869995117188	-0.0459822998046875	-0.01841939926147461	0.9544149780273438	0.020029800415039063	-0.005527080059051514	0.9183330078125	-0.001523290038108825	-0.004673920154571533	0.917166015625	-0.026318599700927734	-0.003787909984588623	0.9217880249023438	-0.044206100463867186	0.000705438017845153	0.9537579956054687	0.009375069618225098	0.017009000778198242	0.9313300170898438	-0.00898766040802002	0.018645200729370117	0.9297999877929688	-0.026081499099731446	0.019099800109863282	0.9339760131835938	-0.040521900177001954	0.019286500930786134	0.9571859741210937	-0.06357669830322266	0.01074139976501465	1.0248399658203124
32	1.0666666666666667	-0.024888099670410155	-0.0965322036743164	0.9873560180664063	-0.024938199996948244	-0.07096150207519532	0.9926669921875	-0.03119700050354004	-0.04713420104980469	1.0036099853515625	-0.03667300033569336	-0.01584109973907471	1.012510009765625	0.017253400802612305	-0.04780030059814453	0.9143880004882813	-0.002973560094833374	-0.04785770034790039	0.9202960205078125	-0.022599599838256837	-0.0465880012512207	0.92997802734375	-0.04002830123901367	-0.03784999847412109	0.9623350219726563	0.01876609992980957	-0.028902000427246093	0.8972930297851562	-0.002340189933776855	-0.027606700897216795	0.9062579956054687	-0.02599760055541992	-0.025584699630737305	0.9192860107421875	-0.043234798431396486	-0.01792009925842285	0.955218994140625	0.014619099617004394	-0.007460579872131347	0.8996439819335937	-0.005282519817352295	-0.005371620178222656	0.9087650146484375	-0.026768699645996093	-0.003491480112075805	0.9217750244140624	-0.041586101531982424	0.001134549975395202	0.9547830200195313	0.005458049774169922	0.01844759941101074	0.9153200073242187	-0.011678299903869628	0.01955890083312988	0.9238820190429687	-0.025930099487304688	0.01964360046386719	0.9341309814453125	-0.03793030166625976	0.019526500701904297	0.9584089965820313	-0.06315129852294922	0.010926400184631348	1.0254100341796875
33	1.1	-0.024194999694824217	-0.09529969787597656	0.9853679809570313	-0.024252599716186523	-0.06995169830322266	0.9921539916992187	-0.03057819938659668	-0.04644250106811523	1.0041400146484376	-0.03578659820556641	-0.015451800346374512	1.013219970703125	0.009937789916992188	-0.0509026985168457	0.902302001953125	-0.006706860065460205	-0.04908449935913086	0.9156339721679687	-0.02314109992980957	-0.04646979904174805	0.9301060180664062	-0.03884560012817383	-0.0373385009765625	0.962552978515625	0.00970977020263672	-0.031153799057006836	0.8849310302734374	-0.007097219944000244	-0.028699600219726562	0.9010239868164063	-0.027042800903320313	-0.02548660087585449	0.9196389770507812	-0.041987400054931644	-0.017634099960327148	0.9556950073242187	0.006524459838867187	-0.008804349899291993	0.888780029296875	-0.00958197021484375	-0.005945429801940918	0.904208984375	-0.027239999771118163	-0.003363149881362915	0.9219669799804687	-0.04026539993286133	0.001321079969406128	0.9554760131835938	-0.001769979953765869	0.017791799545288086	0.9060159912109375	-0.015289199829101563	0.018943199157714842	0.9203980102539062	-0.026452199935913086	0.019272300720214845	0.9341170043945313	-0.03660699844360352	0.019581300735473633	0.959156005859375	-0.062425201416015624	0.011172599792480468	1.0257099609375
34	1.1333333333333333	-0.024886999130249023	-0.09406449890136719	0.9825050048828124	-0.02486210060119629	-0.0691177978515625	0.9906090087890626	-0.030659599304199217	-0.046190399169921875	1.00375	-0.03546049880981445	-0.015207599639892579	1.0133200073242188	0.00166414999961853	-0.05272370147705078	0.8953590087890625	-0.011419899940490722	-0.049986099243164064	0.9123259887695313	-0.025040700912475587	-0.04654119873046875	0.9293759765625	-0.038907901763916015	-0.03699319839477539	0.9624310302734375	0.0008968009948730461	-0.03201860046386719	0.8782449951171875	-0.011946800231933594	-0.02905380058288574	0.89775	-0.028574499130249023	-0.02524180030822754	0.9193679809570312	-0.04185990142822266	-0.017272499084472655	0.9558060302734375	-0.002050549983978271	-0.009088569641113282	0.8824990234375	-0.014972800254821778	-0.00599452018737793	0.90122998046875	-0.029541099548339844	-0.003136509895324707	0.921655029296875	-0.040238300323486326	0.0015610599517822262	0.9559409790039063	-0.010175700187683106	0.017417600631713867	0.9006160278320312	-0.020119199752807616	0.018650299072265626	0.9180430297851563	-0.028642799377441405	0.01910770034790039	0.9335130004882812	-0.03638899993896484	0.01969350051879883	0.9592319946289063	-0.0619364013671875	0.011306400299072266	1.0258699951171875
35	1.1666666666666667	-0.025352199554443358	-0.09318289947509766	0.9805900268554687	-0.02543320083618164	-0.06839189910888673	0.9895540161132812	-0.030993200302124022	-0.045722900390625	1.0033499755859374	-0.0356150016784668	-0.014813799858093262	1.0132000122070313	-0.005148009777069092	-0.05351530075073242	0.8913989868164063	-0.015273699760437012	-0.05030780029296875	0.9102979736328125	-0.02672410011291504	-0.04635409927368164	0.9287979736328125	-0.039117599487304686	-0.03664440155029297	0.9621610107421875	-0.008597319602966308	-0.032788600921630856	0.87352197265625	-0.018036699295043944	-0.029451799392700196	0.8951519775390625	-0.03165539932250976	-0.025269100189208984	0.9185479736328125	-0.042387500762939456	-0.01705540084838867	0.95556298828125	-0.011472399711608888	-0.009687700271606446	0.878114013671875	-0.02163909912109375	-0.00628961992263794	0.8987639770507813	-0.03341310119628906	-0.0031578199863433838	0.9208740234375	-0.040987598419189454	0.001752539992332458	0.9556530151367187	-0.018684099197387696	0.017414800643920897	0.8970819702148437	-0.025796499252319336	0.018737499237060546	0.9161240234375	-0.03206219863891602	0.019222700119018554	0.9325800170898437	-0.03722919845581055	0.019753799438476563	0.958791015625	-0.061952098846435544	0.011558600425720215	1.0258699951171875
36	1.2	-0.026554399490356446	-0.09271510314941406	0.979010986328125	-0.026467599868774415	-0.0680572967529297	0.98852001953125	-0.0316786994934082	-0.04552799987792969	1.0028599853515625	-0.036089900970458985	-0.01474370002746582	1.0129199829101563	-0.011059800148010253	-0.05400749969482422	0.8886810302734375	-0.018938100814819336	-0.05050510025024414	0.9087440185546874	-0.02866640090942383	-0.04631510162353516	0.9281489868164062	-0.03963890075683594	-0.03640380096435547	0.96185498046875	-0.015634400367736816	-0.033168300628662106	0.8709860229492188	-0.022692699432373047	-0.029715299606323242	0.89347802734375	-0.034104698181152346	-0.02531030082702637	0.9179940185546875	-0.04302320098876953	-0.016965599060058595	0.9552509765625	-0.01850589942932129	-0.010166000366210938	0.8758380126953125	-0.0267593994140625	-0.006532340049743652	0.8973889770507812	-0.0365994987487793	-0.00328600001335144	0.9202769775390625	-0.04165470123291016	0.001791749954223632	0.9553350219726563	-0.025076400756835936	0.01848270034790039	0.8952589721679688	-0.03024180030822754	0.01941860008239746	0.914989990234375	-0.0350004997253418	0.019676000595092773	0.9319140014648437	-0.03804560089111328	0.01980069923400879	0.9582969970703125	-0.062381500244140624	0.011727299690246582	1.025760009765625
37	1.2333333333333334	-0.027645799636840822	-0.09224909973144531	0.9774249877929687	-0.027301200866699217	-0.06777970123291016	0.9873510131835938	-0.03219710159301758	-0.04543560028076172	1.0021400146484376	-0.03623809814453125	-0.014751999855041505	1.0125700073242188	-0.016657899856567383	-0.0540453987121582	0.8865070190429688	-0.022587900161743165	-0.050433399200439454	0.9073779907226562	-0.030674100875854492	-0.04610240173339844	0.9275380249023437	-0.03999169921875	-0.036207801818847654	0.9616530151367187	-0.022277099609375	-0.0329822998046875	0.8688270263671874	-0.027161800384521484	-0.029508800506591798	0.8921909790039062	-0.036612098693847656	-0.025048700332641602	0.9173939819335938	-0.04357080078125	-0.016847299575805663	0.9550059814453125	-0.02433709907531738	-0.009970450401306152	0.8742839965820313	-0.031031999588012695	-0.00636840009689331	0.8964769897460938	-0.039375999450683596	-0.0030862998962402338	0.9200430297851563	-0.04232799911499024	0.001895570039749145	0.954927978515625	-0.02940019989013672	0.01892049980163574	0.8943889770507812	-0.03338859939575195	0.01977910041809082	0.91439599609375	-0.03719120025634766	0.01991270065307617	0.9315339965820313	-0.03891239929199219	0.01974449920654297	0.957958984375	-0.06251739883422852	0.011628299713134766	1.02575
38	1.2666666666666666	-0.027715299606323244	-0.09171179962158203	0.9759940185546875	-0.027660600662231444	-0.06739830017089844	0.986458984375	-0.0325536994934082	-0.04532720184326172	1.0016599731445313	-0.03671379852294922	-0.01474940013885498	1.0121099853515625	-0.021252700805664063	-0.05406489944458008	0.8849329833984375	-0.025756900787353515	-0.050380001068115236	0.9062940063476562	-0.03276319885253906	-0.045956298828125	0.9267990112304687	-0.04083679962158203	-0.0361338996887207	0.9611909790039063	-0.027093399047851564	-0.03294279861450195	0.8675880126953125	-0.030735200881958007	-0.029436500549316406	0.89122802734375	-0.038958599090576175	-0.024914499282836913	0.9169169921875	-0.04448379898071289	-0.016826499938964845	0.9545960083007813	-0.028317399978637695	-0.010264100074768067	0.8733699951171875	-0.03407080078125	-0.006553190231323242	0.89585400390625	-0.04141360092163086	-0.003171000003814697	0.9196480102539063	-0.04320000076293945	0.0019526900053024293	0.9547990112304687	-0.03271139907836914	0.018742799758911133	0.8936890258789062	-0.03591809844970703	0.019654899597167968	0.913948974609375	-0.039051898956298826	0.019787399291992188	0.9311599731445312	-0.03984149932861328	0.019741300582885743	0.9576900024414062	-0.06278239822387695	0.01169320011138916	1.0255400390625
